<svg width="95" height="90" viewBox="0 0 95 90" fill="none" xmlns="http://www.w3.org/2000/svg">
<path d="M22.4411 77.672L38.5145 58.1814L45.867 67.5595L31.6955 85.5811C26.2681 92.4775 16.2251 85.21 22.4411 77.672ZM41.2127 33.2865C42.7435 28.2921 42.04 24.0244 36.2879 17.6848L22.2323 0.77639C20.2377 -1.5662 15.537 1.87424 17.5008 4.71163L28.7421 18.5584C30.8682 21.1407 26.9175 24.5579 24.7218 21.8983L13.0939 7.57994C10.9292 5.09819 6.45273 8.37627 8.71801 11.2137C11.9961 15.1566 17.0678 21.5968 20.3459 25.5398C22.6189 27.8514 19.163 31.2764 16.9209 28.3926L5.37808 14.167C3.68492 12.327 0.917113 13.4712 0.182638 15.6205C-0.605955 17.9167 1.3346 19.5944 2.65666 21.2953L15.537 37.9331C19.5341 42.5641 24.0028 45.3087 29.1982 43.7547C29.9946 43.5151 30.9687 43.028 32.0124 42.3863L66.6178 87.0578C68.481 89.4623 72.0761 89.7174 74.411 87.7768L74.9444 87.3361C77.5731 85.1482 77.9983 81.1511 75.7485 78.5688L39.1021 36.4641C40.169 35.2735 40.9498 34.1447 41.2127 33.2865ZM51.0083 43.028L56.7063 36.1162C49.377 17.9476 76.5371 -6.26683 89.7035 4.86625C105.7 18.4038 81.9258 51.0299 65.2184 42.9662L58.469 51.5402L51.0083 43.028Z" fill="none"/>
    <style>
        path { fill: #000; }
        @media (prefers-color-scheme: dark) {
            path { fill: #FFF; }
        }
    </style>
</svg>
